<svg width="24" height="24" viewBox="0 0 24 24" xmlns="http://www.w3.org/2000/svg"><g><path d="M21.688 19.821l-4.775-4.86a1.405 1.405 0 00-1.492-.328l-.788-.802a7.602 7.602 0 002.001-4.761c.222-4.243-3.073-7.863-7.361-8.087-4.285-.225-7.94 3.03-8.163 7.273-.222 4.242 3.073 7.862 7.361 8.087a7.792 7.792 0 005.32-1.718l.82.835a1.362 1.362 0 00.311 1.411l4.775 4.863a1.399 1.399 0 001.964.03c.55-.528.56-1.397.027-1.943zM8.507 14.528c-3.248-.17-5.745-2.934-5.576-6.17.17-3.237 2.942-5.724 6.19-5.554 3.248.17 5.746 2.934 5.576 6.17-.17 3.237-2.942 5.724-6.19 5.554z"></path><path d="M12.457 9.594v-1.91l-2.826-.001-.001-2.86H7.677l-.002 2.86-2.87.001v1.91l2.87.002.002 2.88H9.63l.001-2.88z"></path></g></svg>