<svg width="24" height="24" viewBox="0 0 24 24" xmlns="http://www.w3.org/2000/svg"><g><path d="M16.32 4.8a2.4 2.4 0 100-4.8 2.4 2.4 0 000 4.8zm0-3.84a1.44 1.44 0 110 2.88 1.44 1.44 0 010-2.88z"></path><circle cx="6.24" cy="5.28" r="2.4"></circle><path d="M20.64 13.44c.351-.319.53-.786.48-1.258l-.307-2.88v-.307c-.154-1.728-.317-3.696-3.13-3.696h-.125l-.115.058a2.14 2.14 0 01-1.123.25c-.38.013-.756-.08-1.085-.27l-.115-.057h-.125c-2.985 0-3.053 1.68-3.11 3.168 0 .269 0 .557-.048.826l-.317 2.928c-.085.614.26 1.208.835 1.44A1.229 1.229 0 0112 13.44h-1.517l-.269-3.437c-.086-.96-1.344-1.68-2.486-1.824h-.202l-.192.058a2.976 2.976 0 01-.69.086h-.442a3.36 3.36 0 01-1.037-.086l-.202-.077-.163.02c-1.2.143-2.448.806-2.534 1.823l-.279 3.437H0v9.6h13.834l-.125-1.92H1.92v-5.76h11.414l-.096-1.469.596 9.149h.96l-.644-9.907-.355-.067c-.432-.096-.72-.183-1.161-.317a.5.5 0 01-.154-.461l.317-2.88c0-.298 0-.595.048-.883.057-1.469.086-2.218 2.035-2.247a3.34 3.34 0 002.88 0c1.747 0 1.92.96 2.054 2.823l.346 3.177a.48.48 0 01-.163.442c-.372.134-.754.24-1.143.317l-.364.067-.644 9.936h.96l.596-9.14-.096 1.46h1.814v5.76h-2.189l-.125 1.92h4.234v-9.6h-2.4z"></path><path d="M16.32 15.014c-.538 0-.538 0-.547 5.184v2.88h1.123v-3.417c-.058-4.647-.058-4.647-.576-4.647z"></path></g></svg>