<svg width="24" height="24" viewBox="0 0 24 24" xmlns="http://www.w3.org/2000/svg"><path d="M20.5 3.5C18.2 1.2 15.2 0 12 0S5.8 1.2 3.5 3.5 0 8.8 0 12s1.2 6.2 3.5 8.5S8.8 24 12 24s6.2-1.2 8.5-3.5S24 15.2 24 12s-1.2-6.2-3.5-8.5zM6 19.6V11h2v10l-2-1.4zm7 2.3h-2V5.1h2v16.8zm3-.9V9h2v11c-.1 0-.1.1-.2.1L16 21zm3.1-1.9c-.1 0-.1 0 0 0L19 8h-4v13.5c-.3.1-.7.2-1 .3V4h-4v17.8c-.3-.1-.7-.2-1-.3V10H5v9.1l-.1-.1C3 17.2 2 14.7 2 12s1-5.2 2.9-7.1C6.8 3 9.3 2 12 2c2.7 0 5.2 1 7.1 2.9C21 6.8 22 9.3 22 12c0 2.7-1 5.2-2.9 7.1z"></path></svg>