<svg width="24" height="24" viewBox="0 0 24 24" xmlns="http://www.w3.org/2000/svg"><g><path d="M14.5 6.3c-.2-.1-.4 0-.5.1l-5.3 3.7-1.7.3c-.9.2-1.6.9-1.8 1.9-.2.9.2 1.9 1 2.4.3.2.5.3.8.3l.4 2.2c.1.3.3.5.6.5h2.3c.2 0 .3-.1.4-.2.1-.1.1-.3.1-.5l-.5-2.3 5.6.7h.1c.2 0 .3-.1.4-.2.1-.1.2-.3.1-.5l-1.7-8c0-.1-.1-.3-.3-.4zm-6.8 7.6c-.5.1-1-.1-1.2-.5-.3-.4-.3-.9 0-1.3.2-.3.4-.5.8-.5l1.2-.3.3 1.5.2.9-1.3.2zm.8 2.7L8.2 15l1-.2.4 1.8H8.5zm1.6-3l-.6-2.7 4.4-3.1 1.4 6.4-5.2-.6zM17.1 9.7h1.1v1.1h-1.1zM16.293 7.453l1.163-.582.492.984-1.163.582zM17.1 12.6h1.1v1.1h-1.1z"></path><path d="M12 0C5.4 0 0 5.4 0 12s5.4 12 12 12 12-5.4 12-12S18.6 0 12 0zm0 22C6.5 22 2 17.5 2 12S6.5 2 12 2s10 4.5 10 10-4.5 10-10 10z"></path></g></svg>