<svg width="24" height="24" viewBox="0 0 24 24" xmlns="http://www.w3.org/2000/svg"><path d="M21.2 4.8h-8.5l-1.6-1.6c-.2-.1-.4-.2-.7-.2H2.8C1.8 3 1 3.8 1 4.8v14.7c0 1 .8 1.8 1.8 1.8h18.3c1 0 1.8-.8 1.8-1.8V6.7c.1-1-.7-1.9-1.7-1.9zm0 14.7H2.8v-9.2c0-1 .8-1.8 1.8-1.8H13v7.3c-.1.2 0 .4.2.5.2.1.4.1.5 0l1.8-2.5 1.8 2.5c.1.1.2.1.3.1.1 0 .2 0 .2-.1.2-.1.2-.3.2-.5V8.5h1.4c1 0 1.8.8 1.8 1.8v9.2zm.9-11.6c-.7-.8-1.7-1.2-2.8-1.2H4.7c-1.1 0-2.1.5-2.8 1.2V4.8c0-.5.4-.9.9-.9h7.6L12 5.5c.2.2.4.3.6.3h8.5c.5 0 .9.4.9.9v1.2h.1z"></path></svg>