<svg xmlns="http://www.w3.org/2000/svg" width="24" height="24" viewBox="0 0 24 24"><path d="M10.809 15.603a2.005 2.005 0 002.806-.406s0-.003.003-.003c.084-.112.153-.228.203-.344l2.084-4.422a.995.995 0 00-.306-1.225 1.005 1.005 0 00-1.266.053l-3.663 3.253-.003.003a2.222 2.222 0 00-.262.284c0 .003-.003.003-.003.006a1.973 1.973 0 00-.378 1.484c.075.531.353 1 .784 1.316zm.388-2.194c.044-.056.091-.106.141-.153L14.997 10l-2.084 4.425-.003.009a1.008 1.008 0 01-1.9-.287.99.99 0 01.188-.738zM8 18h8v1H8v-1z"></path><path d="M23.056 9.328c-.603-1.428-1.469-2.712-2.572-3.816S18.1 3.546 16.671 2.94c-1.481-.622-3.053-.941-4.672-.941a11.954 11.954 0 00-8.485 3.516A11.988 11.988 0 00-.002 14a11.96 11.96 0 002.741 7.637.998.998 0 00.772.363h16.975c.3 0 .581-.134.772-.363A11.96 11.96 0 0023.999 14c0-1.619-.319-3.191-.944-4.672zM20.003 20H3.997a10.026 10.026 0 01-1.947-5H4v-2H2.05a9.955 9.955 0 012.209-5.325L5.54 8.956 6.956 7.54 5.675 6.259a9.955 9.955 0 015.322-2.209V6h2V4.05c2.009.2 3.847.997 5.328 2.213l-1.281 1.281L18.46 8.96l1.281-1.281a9.932 9.932 0 012.209 5.322H20v2h1.95a10.026 10.026 0 01-1.947 5z"></path></svg>