<svg width="24" height="24" viewBox="0 0 24 24" xmlns="http://www.w3.org/2000/svg"><g><path d="M12 15c-1.653 0-3-1.347-3-3s1.347-3 3-3 3 1.347 3 3-1.347 3-3 3z"></path><path d="M21.169 9.25h-1.387a8.056 8.056 0 00-.335-.808l.98-.98c.346-.347.535-.808.535-1.298s-.191-.951-.535-1.298l-1.3-1.3a1.838 1.838 0 00-2.585-.009l-1 .988a8.207 8.207 0 00-.791-.326V2.833A1.835 1.835 0 0012.918 1h-1.834a1.835 1.835 0 00-1.833 1.833V4.22a8.058 8.058 0 00-.808.336l-.98-.98a1.822 1.822 0 00-1.298-.536c-.49 0-.951.192-1.298.536L3.57 4.873a1.822 1.822 0 00-.535 1.297c0 .49.192.952.535 1.298l.98.98a8.373 8.373 0 00-.335.808h-1.38A1.835 1.835 0 001 11.089v1.833c0 1.011.822 1.833 1.833 1.833H4.22c.098.275.21.545.336.808l-.98.98a1.822 1.822 0 00-.535 1.298c0 .49.191.95.535 1.297l1.298 1.298c.716.716 1.88.716 2.592 0l.98-.98c.264.127.533.238.808.336v1.375c0 1.01.822 1.833 1.833 1.833h1.833a1.835 1.835 0 001.834-1.833V19.78c.275-.097.544-.209.807-.336l.98.98c.347.347.808.536 1.298.536s.952-.192 1.298-.536l1.301-1.3c.71-.71.713-1.871.008-2.584l-.988-1c.123-.258.232-.525.326-.791h1.384A1.835 1.835 0 0023 12.917v-1.834a1.835 1.835 0 00-1.833-1.833h.002zm-.176 3.648h-2.025a.9.9 0 00-.872.674 6.326 6.326 0 01-.666 1.61.896.896 0 00.138 1.085l1.43 1.45-1.276 1.276-1.433-1.433a.898.898 0 00-1.093-.138c-.507.3-1.054.525-1.624.672a.9.9 0 00-.675.871v2.026H11.1v-2.026a.9.9 0 00-.674-.871 6.303 6.303 0 01-1.624-.672.897.897 0 00-1.093.138l-1.433 1.433-1.273-1.273 1.433-1.433a.897.897 0 00.138-1.093A6.214 6.214 0 015.9 13.57a.9.9 0 00-.871-.675l-2.02.003V11.1h2.025a.9.9 0 00.871-.674c.146-.57.374-1.116.672-1.624a.901.901 0 00-.137-1.093L5.007 6.275 6.28 5.002l1.434 1.434c.29.289.739.347 1.093.137a6.215 6.215 0 011.624-.672.899.899 0 00.674-.87V3.006h1.799v2.026a.9.9 0 00.674.871c.55.14 1.107.37 1.61.666a.896.896 0 001.085-.137l1.45-1.43L19 6.277l-1.433 1.433a.897.897 0 00-.138 1.094c.3.506.525 1.053.672 1.623a.9.9 0 00.871.675h2.026v1.795h-.004z"></path></g></svg>