<svg width="24" height="24" viewBox="0 0 24 24" xmlns="http://www.w3.org/2000/svg"><path d="M23.999 13.557l-4.984-5.163V2.5c0-.275-.226-.5-.501-.5h-3.008a.502.502 0 00-.5.5v1.737l-1.56-1.619A1.986 1.986 0 0012 2.006c-.551 0-1.062.219-1.445.612L0 13.556l1.444 1.387 2.535-2.628v7.684c0 1.103.899 2 2.004 2h3.509a.502.502 0 00.501-.5v-6.5h4.01v6.5c0 .275.225.5.5.5h3.51a2.004 2.004 0 002.004-2v-7.684l2.534 2.628L24 13.555v.002zM16.008 3.001h2.004v4.353l-2.004-2.078V3.001zm2.004 17h-3.007v-5.5c0-.275-.225-.5-.501-.5H9.492a.502.502 0 00-.501.5v5.5H5.983v-9.759l6.015-6.234 6.014 6.231v9.762z"></path></svg>