<svg width="24" height="24" viewBox="0 0 24 24" xmlns="http://www.w3.org/2000/svg"><path d="M13.684 8.472a5.86 5.86 0 011.028.822 5.779 5.779 0 010 8.165l-3.854 3.854a5.77 5.77 0 01-4.084 1.688 5.758 5.758 0 01-4.085-1.688 5.779 5.779 0 010-8.165l2.207-2.2 1.555 1.557-2.207 2.197a3.58 3.58 0 000 5.054 3.564 3.564 0 002.527 1.046c.914 0 1.83-.348 2.527-1.046l3.854-3.857a3.58 3.58 0 00-.636-5.56l1.168-1.866zm-.539-5.783a5.779 5.779 0 018.166 0 5.78 5.78 0 010 8.167l-2.207 2.2-1.555-1.558 2.207-2.197a3.58 3.58 0 000-5.054 3.58 3.58 0 00-5.054 0L10.848 8.1a3.58 3.58 0 00.636 5.56l-1.165 1.866A5.779 5.779 0 019.29 6.543z"></path></svg>