<svg width="24" height="24" viewBox="0 0 24 24" xmlns="http://www.w3.org/2000/svg"><g><path d="M22.1 7.7c-.6-1.3-1.3-2.5-2.4-3.5-1-1-2.2-1.8-3.5-2.4-1.3-.5-2.7-.8-4.2-.8s-2.9.3-4.3.9c-1.3.5-2.5 1.3-3.5 2.3-1 1-1.8 2.2-2.4 3.5C1.3 9.1 1 10.5 1 12s.3 2.9.9 4.3c.6 1.3 1.3 2.5 2.4 3.5 1 1 2.2 1.8 3.5 2.4 1.3.5 2.7.8 4.2.8s2.9-.3 4.3-.9c1.3-.6 2.5-1.3 3.5-2.4 1-1 1.8-2.2 2.4-3.5.6-1.4.9-2.8.9-4.3s-.4-2.8-1-4.2zM12 22C6.5 22 2 17.5 2 12S6.5 2 12 2s10 4.5 10 10-4.5 10-10 10z"></path><path d="M13 16v2h-2v-2h2zM12 6c1.1 0 2 .3 2.7.8.9.7 1.3 1.6 1.3 2.7 0 1.8-1.2 2.7-2 3.3-.7.5-1 .8-1 1.2v1h-2v-1c0-.7.2-1.3.7-1.8.3-.4.7-.7 1.1-1 .8-.6 1.2-.9 1.2-1.7C14 8.1 12.6 8 12 8c-.6 0-2 .1-2 1.5v.5H8v-.5c0-1.1.4-2 1.3-2.7.7-.5 1.6-.8 2.7-.8z"></path></g></svg>