<svg width="24" height="24" viewBox="0 0 24 24" xmlns="http://www.w3.org/2000/svg"><path d="M22 18c1.1 0 2-.9 2-2V7c0-3.9-3.1-7-7-7H2C.9 0 0 .9 0 2v14c0 1.1.9 2 2 2h8.9c.9 1.7 2.7 2.9 4.8 2.9 1.2 0 2.3-.4 3.2-1l4 4.1 1.1-1.1-4.1-4c.2-.3.4-.6.5-.9H22zm0-10.5V16h-1v-.4c0-.8-.2-1.6-.5-2.2V7.5H22zM11.1 13H9v-2h4.1c-.8.5-1.5 1.2-2 2zM14 8v2H9V8h5zM9 7V5h5v2H9zm9-2V2.1c2 .4 3.5 1.9 3.9 3.9H18V5zm1.5 3v2H15V8h4.5zM15 7V5h2v2h-2zM2 16V2h15v2H4v10h6.6c-.2.5-.3 1.1-.3 1.6v.4H2zm3-6V8h3v2H5zm3 1v2H5v-2h3zM5 7V5h3v2H5zm10.6 12.8c-1.4 0-2.7-.7-3.4-1.8-.1-.1-.1-.2-.1-.2-.1-.1-.1-.2-.2-.3-.1-.1-.1-.2-.2-.4-.1-.3-.2-.7-.2-1v-.4c0-.6.1-1.1.3-1.6 0-.1.1-.2.1-.3.1-.1.1-.2.2-.3.1-.1.2-.3.3-.4.6-.7 1.4-1.3 2.3-1.5.1 0 .3-.1.5-.1s.4-.1.6-.1c1.3 0 2.5.6 3.3 1.6.1.1.2.3.3.4.1.1.1.2.2.3 0 .1.1.2.1.3.2.5.3 1 .3 1.6v.4c0 .4-.1.7-.2 1.1 0 .1-.1.2-.2.4-.1.1-.1.2-.2.3 0 .1-.1.2-.1.2-1 1.1-2.3 1.8-3.7 1.8z"></path></svg>