<svg xmlns="http://www.w3.org/2000/svg" viewBox="0 0 96 96" fill-rule="evenodd" stroke-linejoin="round" stroke-miterlimit="1.41421" aria-hidden="true">
  <g transform="matrix(1.86505 0 0 1.86139 -11.3081 -17.6139)">
    <g fill-rule="nonzero">
      <path d="M31.8 19.9c5.3 0 10.4 3.6 12.1 8.6l-3-1.3c-1.6-2.5-4.8-5.2-9.1-5.2-3.6 0-7.1 1.9-9.1 5.1l-3 1.3c1.7-4.9 6.8-8.5 12.1-8.5" fill="#fff"/>
      <path d="M31.8 27.8l-12.1 5.4V31l12.1-5.4L43.9 31v2.2l-12.1-5.4z" fill="#fff"/>
    </g>
    <path d="M19.7 47.1h24.2v2H19.7zm14.5-11.8h2.4v9.2h-2.4zm-7.3 0h2.4v9.2h-2.4zm-7.2 0h2.4v9.2h-2.4zm21.7 0h2.4v9.2h-2.4z" fill="#fff"/>
  </g>
</svg>
